<svg data-v-423bf9ae="" xmlns="http://www.w3.org/2000/svg" viewBox="0 0 193 90" class="iconLeft"><!----><!----><!----><g data-v-423bf9ae="" id="9f385a6e-c18e-41c3-a64f-6bb9ebe4e65e" fill="#3E2835" transform="matrix(5.108798725970451,0,0,5.108798725970451,109.83706408512305,16.555347238242653)"><path d="M2.21 10.78L2.21 10.78L2.21 10.78Q2.04 10.82 1.92 10.84L1.92 10.84L1.92 10.84Q1.79 10.85 1.69 10.86L1.69 10.86L1.69 10.86Q1.58 10.86 1.48 10.86L1.48 10.86L1.48 10.86Q1.37 10.85 1.23 10.82L1.23 10.82L1.23 10.82Q0.76 10.75 0.50 10.50L0.50 10.50L0.50 10.50Q0.22 10.26 0.11 9.80L0.11 9.80L0.11 9.79L0.11 9.79Q-0.06 9.16 0.14 7.73L0.14 7.73L0.14 7.73Q0.17 7.53 0.22 7.20L0.22 7.20L0.22 7.20Q0.27 6.87 0.34 6.41L0.34 6.41L0.34 6.41Q0.41 5.95 0.47 5.59L0.47 5.59L0.47 5.59Q0.53 5.22 0.56 4.96L0.56 4.96L0.56 4.96Q0.69 4.02 0.75 3.18L0.75 3.18L0.75 3.18Q0.81 2.34 0.85 1.58L0.85 1.58L0.85 1.58Q0.87 1.27 0.88 1.08L0.88 1.08L0.88 1.08Q0.90 0.88 0.91 0.77L0.91 0.77L0.91 0.77Q0.92 0.66 0.93 0.59L0.93 0.59L0.93 0.59Q0.94 0.52 0.94 0.45L0.94 0.45L0.94 0.45Q0.92 0.42 0.94 0.30L0.94 0.30L0.94 0.30Q0.95 0.18 0.97 0.15L0.97 0.15L0.97 0.15Q0.99-0.01 1.08-0.11L1.08-0.11L1.08-0.11Q1.18-0.20 1.34-0.25L1.34-0.25L1.34-0.25Q1.54-0.32 1.81-0.30L1.81-0.30L1.81-0.30Q2.07-0.28 2.25-0.08L2.25-0.08L2.25-0.08Q2.31-0.01 2.35 0.08L2.35 0.08L2.35 0.08Q2.38 0.17 2.35 0.35L2.35 0.35L2.35 0.35Q2.34 0.42 2.32 0.51L2.32 0.51L2.32 0.51Q2.31 0.60 2.27 0.73L2.27 0.73L2.27 0.73Q2.24 0.78 2.22 0.91L2.22 0.91L2.22 0.91Q2.20 1.04 2.17 1.16L2.17 1.16L2.17 1.16Q2.14 1.29 2.12 1.39L2.12 1.39L2.12 1.39Q2.10 1.48 2.10 1.50L2.10 1.50L2.10 1.50Q2.09 1.64 2.06 1.77L2.06 1.77L2.06 1.77Q2.04 1.90 2.02 2.09L2.02 2.09L2.02 2.09Q1.99 2.27 1.95 2.53L1.95 2.53L1.95 2.53Q1.90 2.80 1.85 3.22L1.85 3.22L1.85 3.22Q1.71 4.07 1.60 4.84L1.60 4.84L1.60 4.84Q1.50 5.61 1.40 6.31L1.40 6.31L1.40 6.31Q1.29 7.20 1.19 7.90L1.19 7.90L1.19 7.90Q1.09 8.61 1.12 8.97L1.12 8.97L1.12 8.97Q1.13 9.20 1.16 9.37L1.16 9.37L1.16 9.37Q1.18 9.55 1.24 9.67L1.24 9.67L1.24 9.67Q1.30 9.79 1.42 9.85L1.42 9.85L1.42 9.85Q1.54 9.91 1.74 9.91L1.74 9.91L1.74 9.91Q1.92 9.91 2.15 9.80L2.15 9.80L2.15 9.80Q2.38 9.69 2.63 9.55L2.63 9.55L2.63 9.55Q2.74 9.48 2.86 9.39L2.86 9.39L2.86 9.39Q2.97 9.31 3.29 9.11L3.29 9.11L3.29 9.11Q3.86 8.64 4.21 8.68L4.21 8.68L4.21 8.68Q4.33 8.71 4.40 8.70L4.40 8.70L4.40 8.70Q4.47 8.69 4.55 8.78L4.55 8.78L4.55 8.78Q4.62 8.85 4.65 8.94L4.65 8.94L4.65 8.94Q4.68 9.03 4.66 9.09L4.66 9.09L4.66 9.09Q4.59 9.42 4.16 9.74L4.16 9.74L4.16 9.74Q3.72 10.07 2.93 10.47L2.93 10.47L2.93 10.47Q2.77 10.54 2.69 10.59L2.69 10.59L2.69 10.59Q2.62 10.64 2.56 10.68L2.56 10.68L2.56 10.68Q2.49 10.71 2.42 10.73L2.42 10.73L2.42 10.73Q2.34 10.75 2.21 10.78ZM9.51 5.53L9.51 5.53L9.51 5.53Q9.62 5.53 9.72 5.61L9.72 5.61L9.72 5.61Q9.83 5.70 9.83 5.91L9.83 5.91L9.83 5.91Q9.83 6.41 9.31 8.06L9.31 8.06L9.31 8.06Q8.95 9.16 8.60 9.68L8.60 9.68L8.60 9.68Q8.26 10.21 7.87 10.21L7.87 10.21L7.87 10.21Q7.50 10.21 7.28 9.87L7.28 9.87L7.28 9.87Q7.22 9.79 7.15 9.64L7.15 9.64L7.15 9.64Q7.08 9.49 7.01 9.30L7.01 9.30L7.01 9.30Q6.87 9.63 6.83 9.76L6.83 9.76L6.83 9.76Q6.78 9.88 6.75 9.93L6.75 9.93L6.75 9.94L6.75 9.94Q6.38 10.51 5.87 10.51L5.87 10.51L5.87 10.51Q5.71 10.51 5.51 10.42L5.51 10.42L5.51 10.42Q5.31 10.33 5.12 10.04L5.12 10.04L5.12 10.04Q4.87 9.60 4.87 9.04L4.87 9.04L4.87 9.04Q4.87 8.57 4.89 8.03L4.89 8.03L4.89 8.03Q4.91 7.49 4.94 6.86L4.94 6.86L4.94 6.86Q4.97 6.37 5.00 6.09L5.00 6.09L5.00 6.09Q5.03 5.81 5.05 5.67L5.05 5.67L5.05 5.67Q5.07 5.53 5.08 5.48L5.08 5.48L5.08 5.48Q5.10 5.43 5.11 5.40L5.11 5.40L5.11 5.40Q5.15 5.33 5.25 5.26L5.25 5.26L5.25 5.26Q5.35 5.18 5.54 5.18L5.54 5.18L5.54 5.18Q5.63 5.18 5.74 5.22L5.74 5.22L5.74 5.22Q5.85 5.26 5.96 5.39L5.96 5.39L5.96 5.39Q6.15 5.57 6.15 5.78L6.15 5.78L6.15 5.78Q6.15 5.92 6.08 6.17L6.08 6.17L6.08 6.17Q6.03 6.33 6.01 6.41L6.01 6.41L6.01 6.41Q5.99 6.48 5.99 6.51L5.99 6.51L5.99 6.51Q5.78 7.67 5.78 9.27L5.78 9.27L5.78 9.27Q5.78 9.55 5.82 9.63L5.82 9.63L5.82 9.63Q5.85 9.72 5.87 9.73L5.87 9.73L5.87 9.73Q5.94 9.73 5.98 9.66L5.98 9.66L5.98 9.66Q6.03 9.59 6.08 9.52L6.08 9.52L6.08 9.52Q6.15 9.37 6.22 9.21L6.22 9.21L6.22 9.21Q6.29 9.04 6.36 8.89L6.36 8.89L6.36 8.88L6.36 8.88Q6.68 8.19 6.83 7L6.83 7L6.83 7Q6.85 6.93 6.87 6.75L6.87 6.75L6.87 6.75Q6.89 6.58 6.94 6.30L6.94 6.30L6.94 6.29L6.94 6.29Q7.01 5.89 7.01 5.73L7.01 5.73L7.01 5.33L7.01 5.33Q6.97 5.04 7.07 4.83L7.07 4.83L7.07 4.83Q7.18 4.59 7.45 4.59L7.45 4.59L7.53 4.59L7.53 4.59Q7.94 4.61 8.04 4.77L8.04 4.77L8.04 4.77Q8.13 4.93 8.13 5.04L8.13 5.04L8.13 5.04Q8.13 5.18 8.02 5.36L8.02 5.36L8.02 5.36Q7.98 5.45 7.95 5.60L7.95 5.60L7.95 5.60Q7.95 5.61 7.95 5.66L7.95 5.66L7.95 5.66Q7.94 5.70 7.92 5.82L7.92 5.82L7.92 5.82Q7.91 5.94 7.88 6.16L7.88 6.16L7.88 6.16Q7.85 6.38 7.80 6.75L7.80 6.75L7.80 6.75Q7.74 7.15 7.71 7.50L7.71 7.50L7.71 7.50Q7.69 7.84 7.69 8.11L7.69 8.11L7.69 8.11Q7.69 8.44 7.71 8.70L7.71 8.70L7.71 8.70Q7.73 8.96 7.78 9.11L7.78 9.11L7.78 9.11Q7.85 9.32 7.91 9.34L7.91 9.34L7.91 9.34Q7.92 9.34 7.97 9.30L7.97 9.30L7.97 9.30Q8.01 9.25 8.09 9.11L8.09 9.11L8.09 9.11Q8.18 8.97 8.29 8.72L8.29 8.72L8.29 8.72Q8.40 8.47 8.54 8.02L8.54 8.02L8.54 8.02Q8.69 7.46 8.84 6.94L8.84 6.94L8.84 6.94Q8.99 6.41 9.14 5.89L9.14 5.89L9.14 5.89Q9.27 5.53 9.51 5.53ZM12.81 5.68L12.81 5.68L12.81 5.68Q12.94 5.68 13.05 5.77L13.05 5.77L13.05 5.77Q13.16 5.87 13.16 6.09L13.16 6.09L13.16 6.09Q13.16 6.79 12.59 8.33L12.59 8.33L12.59 8.33Q11.82 10.46 10.79 10.46L10.79 10.46L10.79 10.46Q10.47 10.46 10.25 10.30L10.25 10.30L10.23 10.29L10.23 10.29Q10.18 10.26 10.13 10.22L10.13 10.22L10.13 10.22Q10.08 10.18 10.02 10.14L10.02 10.14L10.02 10.14Q10.00 10.29 9.93 10.56L9.93 10.56L9.93 10.56Q9.87 10.82 9.79 11.26L9.79 11.26L9.74 11.44L9.56 11.42L9.56 11.42Q9.00 11.37 9.00 11.00L9.00 11.00L9.00 11.00Q9.00 10.98 9.01 10.91L9.01 10.91L9.01 10.91Q9.02 10.85 9.07 10.68L9.07 10.68L9.07 10.68Q9.13 10.51 9.23 10.20L9.23 10.20L9.23 10.20Q9.34 9.88 9.55 9.34L9.55 9.34L9.55 9.34Q9.48 9.02 9.42 8.61L9.42 8.61L9.42 8.61Q9.37 8.20 9.31 7.70L9.31 7.70L9.31 7.70Q9.27 7.25 9.25 6.94L9.25 6.94L9.25 6.94Q9.23 6.64 9.24 6.45L9.24 6.45L9.02 6.20L9.11 5.45L9.11 5.45Q9.21 4.82 9.62 4.82L9.62 4.82L9.62 4.82Q9.72 4.82 9.82 4.85L9.82 4.85L9.82 4.85Q9.93 4.89 10.01 4.99L10.01 4.99L10.01 4.99Q10.09 5.10 10.14 5.28L10.14 5.28L10.14 5.28Q10.19 5.46 10.19 5.75L10.19 5.75L10.19 5.89L10.19 5.89Q10.19 5.98 10.19 6.15L10.19 6.15L10.19 6.15Q10.18 6.33 10.16 6.62L10.16 6.62L10.16 6.62Q10.15 6.94 10.16 7.21L10.16 7.21L10.16 7.21Q10.16 7.48 10.18 7.67L10.18 7.67L10.18 7.76L10.18 7.76Q10.35 7.36 10.56 6.87L10.56 6.87L10.56 6.87Q10.77 6.38 11.05 5.78L11.05 5.78L11.05 5.75L11.05 5.75Q11.16 5.57 11.30 5.31L11.30 5.31L11.30 5.31Q11.44 5.04 11.62 4.68L11.62 4.68L11.70 4.48L11.90 4.59L11.90 4.59Q12.03 4.66 12.15 4.77L12.15 4.77L12.15 4.77Q12.26 4.89 12.26 5.04L12.26 5.04L12.26 5.04Q12.26 5.07 12.26 5.12L12.26 5.12L12.26 5.12Q12.25 5.17 12.19 5.31L12.19 5.31L12.19 5.31Q12.12 5.45 11.99 5.71L11.99 5.71L11.99 5.71Q11.86 5.98 11.61 6.45L11.61 6.45L11.61 6.45Q11.21 7.22 10.92 7.90L10.92 7.90L10.92 7.90Q10.63 8.58 10.43 9.17L10.43 9.17L10.43 9.17Q10.44 9.20 10.47 9.26L10.47 9.26L10.47 9.26Q10.50 9.32 10.57 9.44L10.57 9.44L10.58 9.44L10.58 9.44Q10.68 9.59 10.76 9.62L10.76 9.62L10.76 9.62Q10.84 9.65 10.86 9.65L10.86 9.65L10.86 9.65Q10.95 9.65 11.08 9.55L11.08 9.55L11.08 9.55Q11.21 9.46 11.40 9.16L11.40 9.16L11.40 9.16Q11.59 8.86 11.82 8.27L11.82 8.27L11.82 8.27Q12.05 7.69 12.32 6.68L12.32 6.68L12.32 6.65L12.32 6.65Q12.36 6.50 12.40 6.35L12.40 6.35L12.40 6.35Q12.43 6.20 12.47 6.05L12.47 6.05L12.47 6.03L12.47 6.03Q12.56 5.68 12.81 5.68ZM15.96 5.49L15.96 5.49L15.96 5.49Q16.14 5.49 16.13 5.59L16.13 5.59L16.13 5.59Q16.11 5.70 16.11 5.87L16.11 5.87L16.11 5.87Q16.11 5.89 16.11 5.96L16.11 5.96L16.11 5.96Q16.10 6.02 16.07 6.13L16.07 6.13L16.07 6.13Q16.04 6.24 16.00 6.44L16.00 6.44L16.00 6.44Q15.96 6.64 15.88 6.93L15.88 6.93L15.88 6.93Q15.61 8.01 15.30 8.83L15.30 8.83L15.30 8.83Q15.15 9.24 15.00 9.53L15.00 9.53L15.00 9.53Q14.85 9.81 14.71 10.01L14.71 10.01L14.71 10.01Q14.34 10.54 13.76 10.54L13.76 10.54L13.76 10.54Q13.12 10.54 12.66 9.87L12.66 9.87L12.66 9.87Q12.24 9.24 12.24 8.34L12.24 8.34L12.24 8.34Q12.24 7.62 12.34 6.87L12.34 6.87L12.34 6.87Q12.45 6.13 12.61 5.54L12.61 5.54L12.61 5.54Q12.67 5.33 12.75 5.11L12.75 5.11L12.75 5.11Q12.82 4.89 12.94 4.70L12.94 4.70L12.94 4.70Q13.05 4.51 13.19 4.39L13.19 4.39L13.19 4.39Q13.33 4.27 13.52 4.27L13.52 4.27L13.52 4.27Q13.92 4.27 14.25 4.56L14.25 4.56L14.25 4.56Q14.41 4.72 14.50 4.94L14.50 4.94L14.50 4.94Q14.60 5.17 14.60 5.33L14.60 5.33L14.60 5.33Q14.60 5.61 14.55 5.95L14.55 5.95L14.55 5.95Q14.49 6.29 14.41 6.62L14.41 6.62L14.41 6.62Q14.32 6.94 14.22 7.22L14.22 7.22L14.22 7.22Q14.11 7.49 14 7.66L14 7.66L14 7.66Q13.93 7.78 13.80 7.91L13.80 7.91L13.80 7.91Q13.68 8.04 13.54 8.11L13.54 8.11L13.54 8.11Q13.41 8.19 13.29 8.20L13.29 8.20L13.29 8.20Q13.17 8.20 13.09 8.09L13.09 8.09L13.09 8.09Q13.06 8.20 13.08 8.39L13.08 8.39L13.08 8.39Q13.09 8.57 13.12 8.74L13.12 8.74L13.12 8.74Q13.15 8.92 13.19 9.07L13.19 9.07L13.19 9.07Q13.23 9.23 13.26 9.30L13.26 9.30L13.26 9.30Q13.37 9.53 13.55 9.65L13.55 9.65L13.55 9.65Q13.73 9.77 13.80 9.77L13.80 9.77L13.80 9.77Q13.94 9.77 14.08 9.56L14.08 9.56L14.08 9.56Q14.21 9.35 14.42 9.03L14.42 9.03L14.42 9.03Q14.66 8.65 14.95 7.97L14.95 7.97L14.95 7.97Q15.25 7.28 15.48 6.50L15.48 6.50L15.48 6.50Q15.53 6.34 15.56 6.20L15.56 6.20L15.56 6.20Q15.60 6.05 15.64 5.89L15.64 5.89L15.64 5.89Q15.71 5.49 15.96 5.49ZM13.76 5.19L13.76 5.19L13.76 5.19Q13.65 5.50 13.56 5.75L13.56 5.75L13.56 5.75Q13.47 5.99 13.38 6.22L13.38 6.22L13.38 6.22Q13.30 6.45 13.24 6.69L13.24 6.69L13.24 6.69Q13.19 6.93 13.17 7.22L13.17 7.22L13.17 7.22Q13.36 7.21 13.49 6.97L13.49 6.97L13.49 6.97Q13.62 6.73 13.66 6.54L13.66 6.54L13.66 6.54Q13.72 6.26 13.78 5.97L13.78 5.97L13.78 5.97Q13.85 5.68 13.85 5.38L13.85 5.38L13.85 5.38Q13.85 5.31 13.83 5.20L13.83 5.20L13.83 5.20Q13.80 5.10 13.76 5.19Z"></path></g><defs data-v-423bf9ae=""><linearGradient data-v-423bf9ae="" gradientTransform="rotate(25)" id="80d9f514-2e81-4524-be00-35e7cf148552" x1="0%" y1="0%" x2="100%" y2="0%"><stop data-v-423bf9ae="" offset="0%" style="stop-color: rgb(214, 65, 63); stop-opacity: 1;"></stop><stop data-v-423bf9ae="" offset="100%" style="stop-color: rgb(66, 133, 211); stop-opacity: 1;"></stop></linearGradient></defs><g data-v-423bf9ae="" id="de674bf0-9ada-4bef-b33b-b6beea6bd66b" transform="matrix(2.8125,0,0,2.8125,0,0)" stroke="none" fill="url(#80d9f514-2e81-4524-be00-35e7cf148552)"><path d="M9.663 12.988L12.675 16l-6.338 6.337 3.326 3.326L16 19.325l3.012 3.012-6.337 6.338L16 32l6.337-6.337 3.326-3.326L32 16l-3.325-3.325-6.338 6.337L19.325 16l6.338-6.337-3.326-3.326L16 12.675l-3.012-3.012 6.337-6.338L16 0 9.663 6.337 6.337 9.663 0 16l3.325 3.325z"></path></g><!----></svg>